<svg width="88" height="88" viewBox="0 0 88 88" fill="none" xmlns="http://www.w3.org/2000/svg">
<path fill-rule="evenodd" clip-rule="evenodd" d="M12.748 10.4377C9.67344 13.4714 7.22929 17.0833 5.55634 21.0655C3.88338 25.0476 3.01465 29.3214 3.00018 33.6407C2.98571 37.9599 3.82578 42.2394 5.47202 46.2327C7.11826 50.226 9.53815 53.8542 12.5924 56.9084C15.6466 59.9626 19.2748 62.3825 23.268 64.0287C27.2613 65.675 31.5408 66.515 35.8601 66.5006C40.1794 66.4861 44.4531 65.6174 48.4353 63.9444C52.4174 62.2714 56.0293 59.8273 59.063 56.7527C65.1369 50.5969 68.5295 42.2885 68.5006 33.6407C68.4716 24.9928 65.0234 16.7074 58.9084 10.5924C52.7934 4.47735 44.508 1.02916 35.8601 1.00018C27.2122 0.971213 18.9039 4.36382 12.748 10.4377ZM54.8531 52.5428C52.3759 55.08 49.4197 57.1003 46.1558 58.4865C42.892 59.8728 39.3855 60.5975 35.8396 60.6185C32.2936 60.6396 28.7788 59.9566 25.4987 58.6092C22.2187 57.2619 19.2387 55.2768 16.7315 52.7692C14.2243 50.2616 12.2397 47.2813 10.8928 44.0011C9.54596 40.7208 8.86355 37.2058 8.88517 33.6599C8.90679 30.1139 9.63201 26.6075 11.0188 23.344C12.4056 20.0804 14.4263 17.1245 16.9639 14.6476C21.9891 9.62242 28.8048 6.79928 35.9115 6.79929C43.0182 6.79929 49.8339 9.62242 54.8591 14.6476C59.8843 19.6728 62.7074 26.4885 62.7074 33.5952C62.7074 40.7019 59.8783 47.5176 54.8531 52.5428Z" fill="#3C3231"/>
<path d="M53.3466 63.6661C52.2619 62.543 51.6617 61.0389 51.6753 59.4776C51.6889 57.9163 52.3151 56.4228 53.4192 55.3188C54.5232 54.2148 56.0167 53.5885 57.578 53.5749C59.1392 53.5614 60.6434 54.1616 61.7664 55.2462L84.3285 77.8083C85.4131 78.9313 86.0133 80.4355 85.9998 81.9968C85.9862 83.558 85.36 85.0515 84.2559 86.1556C83.1519 87.2596 81.6584 87.8858 80.0971 87.8994C78.5358 87.913 77.0317 87.3128 75.9086 86.2281L53.3466 63.6661ZM24.8062 37.1264C24.0165 37.1264 23.2592 36.8127 22.7009 36.2543C22.1425 35.696 21.8289 34.9387 21.8289 34.1491C21.8289 33.3594 22.1425 32.6021 22.7009 32.0438C23.2592 31.4854 24.0165 31.1718 24.8062 31.1718H48.6246C49.4142 31.1718 50.1715 31.4854 50.7299 32.0438C51.2882 32.6021 51.6019 33.3594 51.6019 34.1491C51.6019 34.9387 51.2882 35.696 50.7299 36.2543C50.1715 36.8127 49.4142 37.1264 48.6246 37.1264H24.8062Z" fill="#3C3231"/>
<path d="M33.7383 22.2398C33.7383 21.4501 34.052 20.6928 34.6103 20.1345C35.1687 19.5761 35.926 19.2625 36.7156 19.2625C37.5052 19.2625 38.2625 19.5761 38.8209 20.1345C39.3792 20.6928 39.6929 21.4501 39.6929 22.2398V46.0582C39.6929 46.8478 39.3792 47.6051 38.8209 48.1635C38.2625 48.7218 37.5052 49.0355 36.7156 49.0355C35.926 49.0355 35.1687 48.7218 34.6103 48.1635C34.052 47.6051 33.7383 46.8478 33.7383 46.0582V22.2398Z" fill="#3C3231"/>
</svg>
