<svg width="24" height="24" viewBox="0 0 24 24" fill="none" xmlns="http://www.w3.org/2000/svg">
<g clip-path="url(#clip0_49_78)">
<path fill-rule="evenodd" clip-rule="evenodd" d="M21.0732 3.16829C21.3615 3.04695 21.677 3.0051 21.987 3.0471C22.297 3.08909 22.59 3.21341 22.8356 3.40709C23.0813 3.60078 23.2705 3.85676 23.3836 4.14839C23.4967 4.44002 23.5296 4.75664 23.4788 5.06529L20.8328 21.1151C20.5762 22.6633 18.8775 23.5511 17.4577 22.78C16.27 22.1348 14.506 21.1408 12.9193 20.1036C12.126 19.5845 9.69583 17.922 9.9945 16.739C10.2512 15.7275 14.3345 11.9265 16.6678 9.66663C17.5837 8.77879 17.166 8.26663 16.0845 9.08329C13.3988 11.111 9.08683 14.1945 7.66117 15.0625C6.4035 15.8278 5.74783 15.9585 4.96383 15.8278C3.5335 15.5898 2.207 15.2211 1.12433 14.772C-0.338668 14.1653 -0.267501 12.154 1.12317 11.5683L21.0732 3.16829Z" fill="#3C3231"/>
</g>
<defs>
<clipPath id="clip0_49_78">
<rect width="24" height="24" fill="white"/>
</clipPath>
</defs>
</svg>
