<svg width="24" height="24" viewBox="0 0 24 24" fill="none" xmlns="http://www.w3.org/2000/svg">
<path d="M24 18.375V5.625C24 4.44917 23.0547 3.5 21.8836 3.5H2.1164C0.945326 3.5 0 4.44917 0 5.625V18.375C0 19.5508 0.945326 20.5 2.1164 20.5H21.8836C23.0547 20.5 24 19.5508 24 18.375ZM22.1517 5.46917C22.6173 5.93667 22.3633 6.41833 22.1093 6.65917L16.381 11.9292L21.8836 17.6808C22.0529 17.8792 22.1658 18.1908 21.9683 18.4033C21.7848 18.63 21.3616 18.6158 21.1781 18.4742L15.0123 13.19L11.9929 15.9525L8.98765 13.19L2.82187 18.4742C2.63845 18.6158 2.21517 18.63 2.03175 18.4033C1.83422 18.1908 1.94709 17.8792 2.1164 17.6808L7.61905 11.9292L1.89065 6.65917C1.63668 6.41833 1.38272 5.93667 1.84832 5.46917C2.31393 5.00167 2.79365 5.22833 3.18871 5.56833L11.9929 12.7083L20.8113 5.56833C21.2063 5.22833 21.6861 5.00167 22.1517 5.46917Z" fill="#3C3231"/>
</svg>
