<svg width="24" height="24" viewBox="0 0 24 24" fill="none" xmlns="http://www.w3.org/2000/svg">
<path d="M12 8.5C11.0717 8.5 10.1815 8.86875 9.52513 9.52513C8.86875 10.1815 8.5 11.0717 8.5 12C8.5 12.9283 8.86875 13.8185 9.52513 14.4749C10.1815 15.1313 11.0717 15.5 12 15.5C12.9283 15.5 13.8185 15.1313 14.4749 14.4749C15.1313 13.8185 15.5 12.9283 15.5 12C15.5 11.0717 15.1313 10.1815 14.4749 9.52513C13.8185 8.86875 12.9283 8.5 12 8.5Z" fill="#3C3231"/>
<path fill-rule="evenodd" clip-rule="evenodd" d="M7.8 1.5C6.12914 1.5 4.52671 2.16375 3.34523 3.34523C2.16375 4.52671 1.5 6.12914 1.5 7.8L1.5 16.2C1.5 17.8709 2.16375 19.4733 3.34523 20.6548C4.52671 21.8363 6.12914 22.5 7.8 22.5H16.2C17.8709 22.5 19.4733 21.8363 20.6548 20.6548C21.8363 19.4733 22.5 17.8709 22.5 16.2V7.8C22.5 6.12914 21.8363 4.52671 20.6548 3.34523C19.4733 2.16375 17.8709 1.5 16.2 1.5L7.8 1.5ZM7.1 12C7.1 10.7004 7.61625 9.45411 8.53518 8.53518C9.45411 7.61625 10.7004 7.1 12 7.1C13.2996 7.1 14.5459 7.61625 15.4648 8.53518C16.3838 9.45411 16.9 10.7004 16.9 12C16.9 13.2996 16.3838 14.5459 15.4648 15.4648C14.5459 16.3838 13.2996 16.9 12 16.9C10.7004 16.9 9.45411 16.3838 8.53518 15.4648C7.61625 14.5459 7.1 13.2996 7.1 12ZM16.9 7.1H18.3V5.7H16.9V7.1Z" fill="#3C3231"/>
</svg>
